<?xml version="1.0" standalone="no"?>
<!DOCTYPE svg PUBLIC "-//W3C//DTD SVG 20010904//EN"
 "http://www.w3.org/TR/2001/REC-SVG-20010904/DTD/svg10.dtd">
<svg version="1.0" xmlns="http://www.w3.org/2000/svg"
 width="512.000000pt" height="512.000000pt" viewBox="0 0 512.000000 512.000000"
 preserveAspectRatio="xMidYMid meet">
<metadata>
Created by potrace 1.16, written by Peter Selinger 2001-2019
</metadata>
<g transform="translate(0.000000,512.000000) scale(0.100000,-0.100000)"
fill="#000000" stroke="none">
<path d="M2031 4218 c-286 -497 -525 -909 -529 -916 -6 -9 -174 83 -626 344
-339 196 -619 354 -622 351 -3 -3 179 -326 405 -717 226 -392 411 -716 411
-720 0 -4 -185 -328 -411 -720 -226 -391 -408 -714 -405 -717 3 -3 283 155
622 351 340 196 620 353 624 349 4 -4 242 -416 530 -915 287 -500 526 -908
530 -908 4 0 242 406 529 903 286 496 525 908 529 915 7 10 166 -78 626 -344
340 -196 620 -354 623 -351 3 3 -180 326 -406 718 -226 391 -411 715 -411 719
0 4 185 328 411 720 226 391 409 714 406 717 -3 3 -283 -155 -623 -352 -460
-265 -619 -353 -626 -343 -4 7 -243 419 -529 916 -287 496 -525 902 -529 902
-4 0 -242 -406 -529 -902z m975 -249 c241 -419 440 -766 441 -773 3 -14 -872
-519 -892 -514 -32 7 -884 504 -882 514 3 18 880 1534 887 1534 3 0 204 -342
446 -761z m-1879 -694 c144 -82 262 -154 263 -159 0 -9 -170 -309 -193 -339
-10 -14 -39 31 -195 301 -100 174 -194 336 -208 360 l-26 44 49 -29 c27 -15
166 -95 310 -178z m3196 157 c-16 -26 -109 -188 -208 -359 -99 -172 -183 -309
-187 -305 -13 14 -198 339 -198 348 1 7 600 359 618 363 1 1 -10 -21 -25 -47z
m-2355 -642 c215 -124 391 -227 391 -230 0 -4 -533 -313 -728 -422 l-66 -36
-132 229 -132 229 132 230 c73 126 135 228 138 227 3 -1 181 -103 397 -227z
m1719 0 l132 -230 -123 -213 c-67 -116 -127 -220 -132 -229 -9 -16 -56 9 -399
207 -215 123 -390 229 -390 235 0 8 756 456 775 459 3 0 64 -103 137 -229z
m-676 -602 c241 -139 438 -258 436 -265 -3 -17 -880 -1533 -887 -1533 -6 0
-884 1516 -887 1534 -3 11 862 515 885 516 8 0 211 -114 453 -252z m-1711 -18
c49 -86 90 -161 90 -166 -1 -5 -119 -76 -263 -159 -144 -82 -283 -163 -310
-178 l-49 -29 26 44 c14 24 108 186 208 360 156 270 185 315 195 301 7 -9 53
-87 103 -173z m2825 -140 c103 -179 196 -340 208 -359 l20 -33 -49 28 c-27 16
-167 97 -311 179 -144 83 -262 154 -263 159 0 6 28 57 61 115 34 58 79 137
101 174 22 38 41 67 43 65 1 -2 87 -149 190 -328z"/>
</g>
</svg>
